<?xml version="1.0" encoding="utf-8"?>
<!-- Generator: Adobe Illustrator 18.1.1, SVG Export Plug-In . SVG Version: 6.00 Build 0)  -->
<svg version="1.1" id="Layer_1" xmlns="http://www.w3.org/2000/svg" xmlns:xlink="http://www.w3.org/1999/xlink" x="0px" y="0px"
	 viewBox="0 0 86 127.1" enable-background="new 0 0 86 127.1" xml:space="preserve">
<g>
	<path fill="#666666" d="M81.8,127.1H18.3c-1.3,0-2.4-0.6-3.1-1.5c-0.7-1-0.8-2.2-0.3-3.4l19.6-52.2c0.3-0.9,0.6-2.5,0.6-3.4V38.5
		c0-0.6-0.5-1.6-0.9-2c0,0,0.5,0.4-1.7-1.7c-2.1-2.1,0.6-5.1,0.6-5.1l3.9,3.6c1.3,1.2,2.3,3.4,2.3,5.2v27.9c0,1.5-0.4,3.6-0.9,5
		l-19.3,51.3h61.4l-21.8-51c-0.6-1.4-1-3.5-1-5V38.5c0-1.8,0.9-4,2.2-5.2l3.5-3.5c0,0,3.6,2.9-0.4,6.5c-0.4,0.4-0.9,1.6-0.9,2.2
		v28.2c0,0.9,0.3,2.5,0.7,3.3l22.2,52c0.5,1.2,0.4,2.5-0.2,3.4C84.2,126.5,83.1,127.1,81.8,127.1z"/>
	<path fill="#666666" d="M9.4,0.7C6.2-0.4,2.6,1.3,1.5,4.5L1,5.9c-1.1,3.2,0.6,6.8,3.8,7.9L44.8,28c0.1-6.7,4.6-13.1,4.6-13.1
		L9.4,0.7z M42.9,25c0,0-34.7-12.1-37.4-13.3c-3.1-1.3-2.2-2.2-0.4-1.8C7,10.3,43.3,23.2,43.3,23.2L42.9,25z M52.3,14.2
		c-1-0.3-3,3-4.6,7.5c-1.6,4.5-2.1,8.3-1.1,8.7c1,0.3,3-3,4.6-7.5C52.8,18.5,53.3,14.6,52.3,14.2z"/>
	<g>
		<g>
			<g>
				<g>
					<path fill="#2B94E9" d="M49.7,92.2h-0.9v-5.8c-0.2,0.2-0.5,0.4-0.9,0.6c-0.4,0.2-0.7,0.4-1,0.5v-0.9c0.5-0.2,1-0.5,1.3-0.9
						c0.4-0.3,0.7-0.7,0.8-1h0.6V92.2z"/>
				</g>
				<g>
					<path fill="#2B94E9" d="M54.9,69.9h-1.6v-9.9c-0.4,0.4-0.9,0.7-1.5,1.1c-0.6,0.4-1.2,0.6-1.6,0.8v-1.5c0.9-0.4,1.6-0.9,2.3-1.5
						c0.7-0.6,1.1-1.1,1.4-1.7h1V69.9z"/>
				</g>
				<g>
					<path fill="#2B94E9" d="M39.2,81.1c0-1.1,0.1-1.9,0.3-2.6c0.2-0.7,0.5-1.2,1-1.5c0.4-0.4,1-0.5,1.6-0.5c0.5,0,0.9,0.1,1.3,0.3
						c0.4,0.2,0.7,0.5,0.9,0.8c0.2,0.4,0.4,0.8,0.6,1.3c0.1,0.5,0.2,1.2,0.2,2.1c0,1.1-0.1,1.9-0.3,2.6c-0.2,0.7-0.5,1.2-1,1.5
						c-0.4,0.4-1,0.5-1.6,0.5c-0.9,0-1.6-0.3-2.1-0.9C39.5,84,39.2,82.8,39.2,81.1z M40.3,81.1c0,1.5,0.2,2.5,0.5,3
						c0.3,0.5,0.8,0.7,1.3,0.7s0.9-0.2,1.3-0.7c0.3-0.5,0.5-1.5,0.5-3c0-1.5-0.2-2.5-0.5-3c-0.3-0.5-0.8-0.7-1.3-0.7
						c-0.5,0-0.9,0.2-1.2,0.6C40.5,78.6,40.3,79.6,40.3,81.1z"/>
				</g>
				<g>
					<g>
						<path fill="#2B94E9" d="M43.5,53.6c0-0.9,0.1-1.6,0.3-2.1c0.2-0.5,0.5-1,0.8-1.3c0.4-0.3,0.8-0.4,1.4-0.4
							c0.4,0,0.8,0.1,1.1,0.2c0.3,0.2,0.6,0.4,0.8,0.7c0.2,0.3,0.4,0.7,0.5,1.1c0.1,0.4,0.2,1,0.2,1.8c0,0.9-0.1,1.6-0.3,2.1
							c-0.2,0.5-0.5,1-0.8,1.3c-0.4,0.3-0.8,0.4-1.4,0.4c-0.7,0-1.3-0.3-1.7-0.8C43.7,56,43.5,55,43.5,53.6z M44.4,53.6
							c0,1.2,0.1,2.1,0.4,2.5c0.3,0.4,0.6,0.6,1.1,0.6c0.4,0,0.8-0.2,1.1-0.6c0.3-0.4,0.4-1.2,0.4-2.5c0-1.2-0.1-2.1-0.4-2.5
							c-0.3-0.4-0.6-0.6-1.1-0.6c-0.4,0-0.8,0.2-1,0.5C44.6,51.5,44.4,52.4,44.4,53.6z"/>
					</g>
				</g>
				<g>
					<g>
						<path fill="#2B94E9" d="M45.9,39.9c0-1,0.1-1.9,0.3-2.5c0.2-0.6,0.5-1.1,1-1.5c0.4-0.3,1-0.5,1.6-0.5c0.5,0,0.9,0.1,1.2,0.3
							c0.4,0.2,0.7,0.5,0.9,0.8c0.2,0.4,0.4,0.8,0.5,1.3c0.1,0.5,0.2,1.2,0.2,2.1c0,1-0.1,1.9-0.3,2.5c-0.2,0.6-0.5,1.1-1,1.5
							c-0.4,0.3-1,0.5-1.6,0.5c-0.8,0-1.5-0.3-2-0.9C46.2,42.8,45.9,41.6,45.9,39.9z M47.1,39.9c0,1.4,0.2,2.4,0.5,2.9
							c0.3,0.5,0.8,0.7,1.3,0.7c0.5,0,0.9-0.2,1.3-0.7c0.3-0.5,0.5-1.4,0.5-2.9c0-1.4-0.2-2.4-0.5-2.9c-0.3-0.5-0.8-0.7-1.3-0.7
							c-0.5,0-0.9,0.2-1.2,0.6C47.2,37.5,47.1,38.5,47.1,39.9z"/>
					</g>
				</g>
				<g>
					<g>
						<path fill="#2B94E9" d="M51.5,81.1c0-0.7,0.1-1.3,0.2-1.8c0.1-0.4,0.4-0.8,0.7-1c0.3-0.2,0.7-0.4,1.1-0.4
							c0.3,0,0.6,0.1,0.9,0.2c0.3,0.1,0.5,0.3,0.6,0.6c0.2,0.3,0.3,0.6,0.4,0.9c0.1,0.4,0.1,0.8,0.1,1.5c0,0.7-0.1,1.3-0.2,1.8
							c-0.2,0.4-0.4,0.8-0.7,1c-0.3,0.2-0.7,0.4-1.1,0.4c-0.6,0-1.1-0.2-1.4-0.6C51.7,83.1,51.5,82.3,51.5,81.1z M52.3,81.1
							c0,1,0.1,1.7,0.4,2c0.2,0.3,0.5,0.5,0.9,0.5c0.3,0,0.6-0.2,0.9-0.5c0.2-0.3,0.4-1,0.4-2c0-1-0.1-1.7-0.4-2
							c-0.2-0.3-0.5-0.5-0.9-0.5c-0.3,0-0.6,0.1-0.8,0.4C52.5,79.4,52.3,80.1,52.3,81.1z"/>
					</g>
				</g>
				<g>
					<g>
						<path fill="#2B94E9" d="M42.1,68.7c0-1.2,0.1-2.2,0.4-2.9c0.2-0.7,0.6-1.3,1.1-1.7c0.5-0.4,1.1-0.6,1.9-0.6
							c0.5,0,1,0.1,1.4,0.3c0.4,0.2,0.8,0.5,1,1c0.3,0.4,0.5,0.9,0.6,1.5c0.2,0.6,0.2,1.4,0.2,2.4c0,1.2-0.1,2.2-0.4,2.9
							c-0.2,0.7-0.6,1.3-1.1,1.7c-0.5,0.4-1.1,0.6-1.9,0.6c-1,0-1.8-0.4-2.3-1.1C42.5,72,42.1,70.6,42.1,68.7z M43.4,68.7
							c0,1.7,0.2,2.8,0.6,3.4c0.4,0.6,0.9,0.8,1.5,0.8c0.6,0,1.1-0.3,1.5-0.8c0.4-0.6,0.6-1.7,0.6-3.4c0-1.7-0.2-2.8-0.6-3.4
							c-0.4-0.6-0.9-0.8-1.5-0.8c-0.6,0-1,0.2-1.4,0.7C43.6,65.9,43.4,67,43.4,68.7z"/>
					</g>
				</g>
			</g>
		</g>
		<polygon fill="#2B94E9" points="22.5,120.7 77.7,120.7 66.7,96.5 31.5,96.5 		"/>
	</g>
	<g>
		<g>
			<path fill="#FFFFFF" d="M57.7,105.9c-0.1-0.2-0.3-0.4-0.6-0.5c-0.2-0.1-0.5-0.2-0.8-0.2c-0.4,0-0.7,0.1-1,0.3
				c-0.3,0.2-0.5,0.5-0.6,0.9c-0.1,0.4-0.2,0.9-0.2,1.6c0,1.1,0.2,1.8,0.6,2.3c0.3,0.4,0.7,0.6,1.3,0.6c0.4,0,0.7-0.1,1-0.3
				c0.3-0.2,0.5-0.5,0.6-0.9c0.1-0.4,0.2-0.9,0.2-1.6c0-0.6,0-1-0.1-1.3C57.9,106.4,57.8,106.1,57.7,105.9z M57.1,109.9
				c-0.2,0.3-0.5,0.5-0.8,0.5c-0.3,0-0.6-0.2-0.8-0.5c-0.2-0.3-0.3-0.9-0.3-1.8s0.1-1.5,0.4-1.9c0.2-0.3,0.4-0.4,0.8-0.4
				c0.3,0,0.6,0.2,0.8,0.5c0.2,0.3,0.3,0.9,0.3,1.8C57.4,109,57.3,109.6,57.1,109.9z M57.8,98.4c-0.1-0.2-0.3-0.4-0.6-0.5
				c-0.2-0.1-0.5-0.2-0.8-0.2c-0.4,0-0.7,0.1-1,0.3c-0.3,0.2-0.5,0.5-0.6,0.9c-0.1,0.4-0.2,0.9-0.2,1.6c0,1.1,0.2,1.8,0.6,2.3
				c0.3,0.4,0.7,0.6,1.3,0.6c0.4,0,0.7-0.1,1-0.3c0.3-0.2,0.5-0.5,0.6-0.9c0.1-0.4,0.2-0.9,0.2-1.6c0-0.6,0-1-0.1-1.3
				C58,98.9,57.9,98.6,57.8,98.4z M57.2,102.4c-0.2,0.3-0.5,0.5-0.8,0.5c-0.3,0-0.6-0.2-0.8-0.5c-0.2-0.3-0.3-0.9-0.3-1.8
				c0-0.9,0.1-1.5,0.4-1.9c0.2-0.3,0.4-0.4,0.8-0.4c0.3,0,0.6,0.2,0.8,0.5c0.2,0.3,0.3,0.9,0.3,1.8
				C57.5,101.5,57.4,102.1,57.2,102.4z M71.3,114c-0.1-0.2-0.3-0.4-0.6-0.5c-0.2-0.1-0.5-0.2-0.8-0.2c-0.4,0-0.7,0.1-1,0.3
				c-0.3,0.2-0.5,0.5-0.6,0.9c-0.1,0.4-0.2,0.9-0.2,1.6c0,1.1,0.2,1.8,0.6,2.3c0.3,0.4,0.7,0.6,1.3,0.6c0.4,0,0.7-0.1,1-0.3
				c0.3-0.2,0.5-0.5,0.6-0.9c0.1-0.4,0.2-0.9,0.2-1.6c0-0.6,0-1-0.1-1.3C71.5,114.5,71.4,114.2,71.3,114z M70.7,118
				c-0.2,0.3-0.5,0.5-0.8,0.5s-0.6-0.2-0.8-0.5c-0.2-0.3-0.3-0.9-0.3-1.8c0-0.9,0.1-1.5,0.4-1.9c0.2-0.3,0.4-0.4,0.8-0.4
				c0.3,0,0.6,0.2,0.8,0.5c0.2,0.3,0.3,0.9,0.3,1.8C71,117,70.9,117.7,70.7,118z M66.2,97.9c-0.2-0.1-0.5-0.2-0.7-0.2
				c-0.4,0-0.7,0.1-1,0.3c-0.3,0.2-0.5,0.5-0.6,0.9c-0.1,0.4-0.2,0.9-0.2,1.6c0,1.1,0.2,1.8,0.6,2.3c0.3,0.4,0.7,0.6,1.3,0.6
				c0.4,0,0.7-0.1,1-0.3c0.3-0.2,0.5-0.5,0.6-0.9c0.1-0.4,0.2-0.9,0.2-1.6c0-0.1,0-0.2,0-0.3L66.2,97.9z M66.2,102.4
				c-0.2,0.3-0.5,0.5-0.8,0.5c-0.3,0-0.6-0.2-0.8-0.5c-0.2-0.3-0.3-0.9-0.3-1.8c0-0.9,0.1-1.5,0.4-1.9c0.2-0.3,0.4-0.4,0.8-0.4
				c0.3,0,0.6,0.2,0.8,0.5c0.2,0.3,0.3,0.9,0.3,1.8C66.5,101.5,66.4,102.1,66.2,102.4z M66.8,114c-0.1-0.2-0.3-0.4-0.6-0.5
				c-0.2-0.1-0.5-0.2-0.8-0.2c-0.4,0-0.7,0.1-1,0.3c-0.3,0.2-0.5,0.5-0.6,0.9c-0.1,0.4-0.2,0.9-0.2,1.6c0,1.1,0.2,1.8,0.6,2.3
				c0.3,0.4,0.7,0.6,1.3,0.6c0.4,0,0.7-0.1,1-0.3c0.3-0.2,0.5-0.5,0.6-0.9c0.1-0.4,0.2-0.9,0.2-1.6c0-0.6,0-1-0.1-1.3
				C67,114.5,66.9,114.2,66.8,114z M66.2,118c-0.2,0.3-0.5,0.5-0.8,0.5c-0.3,0-0.6-0.2-0.8-0.5c-0.2-0.3-0.3-0.9-0.3-1.8
				c0-0.9,0.1-1.5,0.4-1.9c0.2-0.3,0.4-0.4,0.8-0.4c0.3,0,0.6,0.2,0.8,0.5c0.2,0.3,0.3,0.9,0.3,1.8C66.5,117,66.4,117.7,66.2,118z
				 M69.8,110.9c0.4,0,0.7-0.1,1-0.3c0.3-0.2,0.5-0.5,0.6-0.9c0,0,0-0.1,0-0.1l-0.5-1.2c0,0.7-0.1,1.2-0.3,1.5
				c-0.2,0.3-0.5,0.5-0.8,0.5c-0.3,0-0.6-0.2-0.8-0.5c-0.2-0.3-0.3-0.9-0.3-1.8s0.1-1.5,0.4-1.9c0.2-0.2,0.4-0.4,0.7-0.4l-0.2-0.5
				c-0.3,0-0.5,0.1-0.7,0.3c-0.3,0.2-0.5,0.5-0.6,0.9c-0.1,0.4-0.2,0.9-0.2,1.6c0,1.1,0.2,1.8,0.6,2.3
				C68.9,110.7,69.3,110.9,69.8,110.9z M52.6,110.8v-5.6h-0.4c-0.1,0.2-0.3,0.5-0.6,0.7c-0.3,0.3-0.6,0.5-1,0.7v0.7
				c0.2-0.1,0.5-0.2,0.7-0.4c0.3-0.2,0.5-0.3,0.7-0.5v4.4H52.6z M60.9,106.4v4.4h0.7v-5.6h-0.4c-0.1,0.2-0.3,0.5-0.6,0.7
				c-0.3,0.3-0.6,0.5-1,0.7v0.7c0.2-0.1,0.5-0.2,0.7-0.4C60.5,106.8,60.7,106.6,60.9,106.4z M56.1,114c-0.3,0.3-0.6,0.5-1,0.7v0.7
				c0.2-0.1,0.5-0.2,0.7-0.4c0.3-0.2,0.5-0.3,0.7-0.5v4.4h0.7v-5.6h-0.4C56.6,113.5,56.4,113.8,56.1,114z M62.3,114
				c-0.1-0.2-0.3-0.4-0.6-0.5c-0.2-0.1-0.5-0.2-0.8-0.2c-0.4,0-0.7,0.1-1,0.3c-0.3,0.2-0.5,0.5-0.6,0.9c-0.1,0.4-0.2,0.9-0.2,1.6
				c0,1.1,0.2,1.8,0.6,2.3c0.3,0.4,0.7,0.6,1.3,0.6c0.4,0,0.7-0.1,1-0.3c0.3-0.2,0.5-0.5,0.6-0.9c0.1-0.4,0.2-0.9,0.2-1.6
				c0-0.6,0-1-0.1-1.3C62.5,114.5,62.4,114.2,62.3,114z M61.7,118c-0.2,0.3-0.5,0.5-0.8,0.5c-0.3,0-0.6-0.2-0.8-0.5
				c-0.2-0.3-0.3-0.9-0.3-1.8c0-0.9,0.1-1.5,0.4-1.9c0.2-0.3,0.4-0.4,0.8-0.4c0.3,0,0.6,0.2,0.8,0.5c0.2,0.3,0.3,0.9,0.3,1.8
				C62,117,61.9,117.7,61.7,118z M65.3,110.9c0.4,0,0.7-0.1,1-0.3c0.3-0.2,0.5-0.5,0.6-0.9c0.1-0.4,0.2-0.9,0.2-1.6
				c0-0.6,0-1-0.1-1.3c-0.1-0.3-0.2-0.6-0.3-0.8c-0.1-0.2-0.3-0.4-0.6-0.5c-0.2-0.1-0.5-0.2-0.8-0.2c-0.4,0-0.7,0.1-1,0.3
				c-0.3,0.2-0.5,0.5-0.6,0.9c-0.1,0.4-0.2,0.9-0.2,1.6c0,1.1,0.2,1.8,0.6,2.3C64.4,110.7,64.8,110.9,65.3,110.9z M64.6,106.2
				c0.2-0.3,0.4-0.4,0.8-0.4c0.3,0,0.6,0.2,0.8,0.5c0.2,0.3,0.3,0.9,0.3,1.8c0,0.9-0.1,1.5-0.3,1.8c-0.2,0.3-0.5,0.5-0.8,0.5
				s-0.6-0.2-0.8-0.5c-0.2-0.3-0.3-0.9-0.3-1.8S64.3,106.5,64.6,106.2z M61,99v4.4h0.7v-5.6h-0.4c-0.1,0.2-0.3,0.5-0.6,0.7
				c-0.3,0.3-0.6,0.5-1,0.7v0.7c0.2-0.1,0.5-0.2,0.7-0.4C60.6,99.3,60.8,99.1,61,99z M30.2,103.2c0.1,0,0.2-0.1,0.2-0.1
				c0.3-0.2,0.5-0.5,0.6-0.9c0.1-0.4,0.2-0.9,0.2-1.6c0,0,0-0.1,0-0.1L30.2,103.2z M33.9,106.4v4.4h0.7v-5.6h-0.4
				c-0.1,0.2-0.3,0.5-0.6,0.7c-0.3,0.3-0.6,0.5-1,0.7v0.7c0.2-0.1,0.5-0.2,0.7-0.4C33.5,106.8,33.7,106.6,33.9,106.4z M35.3,114
				c-0.1-0.2-0.3-0.4-0.6-0.5c-0.2-0.1-0.5-0.2-0.8-0.2c-0.4,0-0.7,0.1-1,0.3c-0.3,0.2-0.5,0.5-0.6,0.9c-0.1,0.4-0.2,0.9-0.2,1.6
				c0,1.1,0.2,1.8,0.6,2.3c0.3,0.4,0.7,0.6,1.3,0.6c0.4,0,0.7-0.1,1-0.3c0.3-0.2,0.5-0.5,0.6-0.9c0.1-0.4,0.2-0.9,0.2-1.6
				c0-0.6,0-1-0.1-1.3C35.5,114.5,35.4,114.2,35.3,114z M34.7,118c-0.2,0.3-0.5,0.5-0.8,0.5c-0.3,0-0.6-0.2-0.8-0.5
				c-0.2-0.3-0.3-0.9-0.3-1.8c0-0.9,0.1-1.5,0.4-1.9c0.2-0.3,0.4-0.4,0.8-0.4c0.3,0,0.6,0.2,0.8,0.5c0.2,0.3,0.3,0.9,0.3,1.8
				C35,117,34.9,117.7,34.7,118z M34,99v4.4h0.7v-5.6h-0.4c-0.1,0.2-0.3,0.5-0.6,0.7c-0.3,0.3-0.6,0.5-1,0.7v0.7
				c0.2-0.1,0.5-0.2,0.7-0.4C33.6,99.3,33.8,99.1,34,99z M39.8,98.4c-0.1-0.2-0.3-0.4-0.6-0.5c-0.2-0.1-0.5-0.2-0.8-0.2
				c-0.4,0-0.7,0.1-1,0.3c-0.3,0.2-0.5,0.5-0.6,0.9c-0.1,0.4-0.2,0.9-0.2,1.6c0,1.1,0.2,1.8,0.6,2.3c0.3,0.4,0.7,0.6,1.3,0.6
				c0.4,0,0.7-0.1,1-0.3c0.3-0.2,0.5-0.5,0.6-0.9c0.1-0.4,0.2-0.9,0.2-1.6c0-0.6,0-1-0.1-1.3C40,98.9,39.9,98.6,39.8,98.4z
				 M39.2,102.4c-0.2,0.3-0.5,0.5-0.8,0.5s-0.6-0.2-0.8-0.5c-0.2-0.3-0.3-0.9-0.3-1.8c0-0.9,0.1-1.5,0.4-1.9
				c0.2-0.3,0.4-0.4,0.8-0.4c0.3,0,0.6,0.2,0.8,0.5c0.2,0.3,0.3,0.9,0.3,1.8C39.5,101.5,39.4,102.1,39.2,102.4z M75.3,117.9
				C75.2,117.9,75.2,117.9,75.3,117.9c-0.2,0.4-0.5,0.5-0.8,0.5c-0.3,0-0.6-0.2-0.8-0.5c-0.2-0.3-0.3-0.9-0.3-1.8
				c0-0.9,0.1-1.5,0.3-1.8l-0.3-0.6c-0.2,0.2-0.4,0.5-0.5,0.8c-0.1,0.4-0.2,0.9-0.2,1.6c0,1.1,0.2,1.8,0.6,2.3
				c0.3,0.4,0.7,0.6,1.3,0.6c0.4,0,0.7-0.1,1-0.3c0,0,0.1-0.1,0.1-0.1L75.3,117.9z M25,118.9h0.7v-3.5l-0.7,1.8V118.9z M53.3,114
				c-0.1-0.2-0.3-0.4-0.6-0.5c-0.2-0.1-0.5-0.2-0.8-0.2c-0.4,0-0.7,0.1-1,0.3c-0.3,0.2-0.5,0.5-0.6,0.9c-0.1,0.4-0.2,0.9-0.2,1.6
				c0,1.1,0.2,1.8,0.6,2.3c0.3,0.4,0.7,0.6,1.3,0.6c0.4,0,0.7-0.1,1-0.3c0.3-0.2,0.5-0.5,0.6-0.9c0.1-0.4,0.2-0.9,0.2-1.6
				c0-0.6,0-1-0.1-1.3C53.5,114.5,53.4,114.2,53.3,114z M52.7,118c-0.2,0.3-0.5,0.5-0.8,0.5c-0.3,0-0.6-0.2-0.8-0.5
				c-0.2-0.3-0.3-0.9-0.3-1.8c0-0.9,0.1-1.5,0.4-1.9c0.2-0.3,0.4-0.4,0.8-0.4c0.3,0,0.6,0.2,0.8,0.5c0.2,0.3,0.3,0.9,0.3,1.8
				C53,117,52.9,117.7,52.7,118z M30,106.4v4.4h0.7v-5.6h-0.4c-0.1,0.2-0.3,0.5-0.6,0.7c-0.2,0.2-0.4,0.3-0.6,0.4l-0.3,0.9
				c0.2-0.1,0.4-0.2,0.6-0.3C29.6,106.8,29.8,106.6,30,106.4z M30.8,114c-0.1-0.2-0.3-0.4-0.6-0.5c-0.2-0.1-0.5-0.2-0.8-0.2
				c-0.4,0-0.7,0.1-1,0.3c-0.3,0.2-0.5,0.5-0.6,0.9c-0.1,0.4-0.2,0.9-0.2,1.6c0,1.1,0.2,1.8,0.6,2.3c0.3,0.4,0.7,0.6,1.3,0.6
				c0.4,0,0.7-0.1,1-0.3c0.3-0.2,0.5-0.5,0.6-0.9c0.1-0.4,0.2-0.9,0.2-1.6c0-0.6,0-1-0.1-1.3C31,114.5,30.9,114.2,30.8,114z
				 M30.2,118c-0.2,0.3-0.5,0.5-0.8,0.5c-0.3,0-0.6-0.2-0.8-0.5c-0.2-0.3-0.3-0.9-0.3-1.8c0-0.9,0.1-1.5,0.4-1.9
				c0.2-0.3,0.4-0.4,0.8-0.4c0.3,0,0.6,0.2,0.8,0.5c0.2,0.3,0.3,0.9,0.3,1.8C30.5,117,30.4,117.7,30.2,118z M38.3,110.9
				c0.4,0,0.7-0.1,1-0.3c0.3-0.2,0.5-0.5,0.6-0.9c0.1-0.4,0.2-0.9,0.2-1.6c0-0.6,0-1-0.1-1.3c-0.1-0.3-0.2-0.6-0.3-0.8
				c-0.1-0.2-0.3-0.4-0.6-0.5c-0.2-0.1-0.5-0.2-0.8-0.2c-0.4,0-0.7,0.1-1,0.3c-0.3,0.2-0.5,0.5-0.6,0.9c-0.1,0.4-0.2,0.9-0.2,1.6
				c0,1.1,0.2,1.8,0.6,2.3C37.4,110.7,37.8,110.9,38.3,110.9z M37.6,106.2c0.2-0.3,0.4-0.4,0.8-0.4c0.3,0,0.6,0.2,0.8,0.5
				c0.2,0.3,0.3,0.9,0.3,1.8c0,0.9-0.1,1.5-0.3,1.8s-0.5,0.5-0.8,0.5c-0.3,0-0.6-0.2-0.8-0.5c-0.2-0.3-0.3-0.9-0.3-1.8
				S37.3,106.5,37.6,106.2z M48.8,114c-0.1-0.2-0.3-0.4-0.6-0.5c-0.2-0.1-0.5-0.2-0.8-0.2c-0.4,0-0.7,0.1-1,0.3
				c-0.3,0.2-0.5,0.5-0.6,0.9c-0.1,0.4-0.2,0.9-0.2,1.6c0,1.1,0.2,1.8,0.6,2.3c0.3,0.4,0.7,0.6,1.3,0.6c0.4,0,0.7-0.1,1-0.3
				c0.3-0.2,0.5-0.5,0.6-0.9c0.1-0.4,0.2-0.9,0.2-1.6c0-0.6,0-1-0.1-1.3C49,114.5,48.9,114.2,48.8,114z M48.2,118
				c-0.2,0.3-0.5,0.5-0.8,0.5c-0.3,0-0.6-0.2-0.8-0.5c-0.2-0.3-0.3-0.9-0.3-1.8c0-0.9,0.1-1.5,0.4-1.9c0.2-0.3,0.4-0.4,0.8-0.4
				c0.3,0,0.6,0.2,0.8,0.5c0.2,0.3,0.3,0.9,0.3,1.8C48.5,117,48.4,117.7,48.2,118z M47.3,110.9c0.4,0,0.7-0.1,1-0.3
				c0.3-0.2,0.5-0.5,0.6-0.9c0.1-0.4,0.2-0.9,0.2-1.6c0-0.6,0-1-0.1-1.3c-0.1-0.3-0.2-0.6-0.3-0.8c-0.1-0.2-0.3-0.4-0.6-0.5
				c-0.2-0.1-0.5-0.2-0.8-0.2c-0.4,0-0.7,0.1-1,0.3c-0.3,0.2-0.5,0.5-0.6,0.9s-0.2,0.9-0.2,1.6c0,1.1,0.2,1.8,0.6,2.3
				C46.4,110.7,46.8,110.9,47.3,110.9z M46.6,106.2c0.2-0.3,0.4-0.4,0.8-0.4c0.3,0,0.6,0.2,0.8,0.5c0.2,0.3,0.3,0.9,0.3,1.8
				c0,0.9-0.1,1.5-0.3,1.8c-0.2,0.3-0.5,0.5-0.8,0.5c-0.3,0-0.6-0.2-0.8-0.5c-0.2-0.3-0.3-0.9-0.3-1.8S46.3,106.5,46.6,106.2z
				 M53.3,98.4c-0.1-0.2-0.3-0.4-0.6-0.5c-0.2-0.1-0.5-0.2-0.8-0.2c-0.4,0-0.7,0.1-1,0.3c-0.3,0.2-0.5,0.5-0.6,0.9
				c-0.1,0.4-0.2,0.9-0.2,1.6c0,1.1,0.2,1.8,0.6,2.3c0.3,0.4,0.7,0.6,1.3,0.6c0.4,0,0.7-0.1,1-0.3c0.3-0.2,0.5-0.5,0.6-0.9
				c0.1-0.4,0.2-0.9,0.2-1.6c0-0.6,0-1-0.1-1.3C53.5,98.9,53.4,98.6,53.3,98.4z M52.7,102.4c-0.2,0.3-0.5,0.5-0.8,0.5
				c-0.3,0-0.6-0.2-0.8-0.5c-0.2-0.3-0.3-0.9-0.3-1.8c0-0.9,0.1-1.5,0.4-1.9c0.2-0.3,0.4-0.4,0.8-0.4c0.3,0,0.6,0.2,0.8,0.5
				c0.2,0.3,0.3,0.9,0.3,1.8C53,101.5,52.9,102.1,52.7,102.4z M48.8,98.4c-0.1-0.2-0.3-0.4-0.6-0.5c-0.2-0.1-0.5-0.2-0.8-0.2
				c-0.4,0-0.7,0.1-1,0.3c-0.3,0.2-0.5,0.5-0.6,0.9c-0.1,0.4-0.2,0.9-0.2,1.6c0,1.1,0.2,1.8,0.6,2.3c0.3,0.4,0.7,0.6,1.3,0.6
				c0.4,0,0.7-0.1,1-0.3c0.3-0.2,0.5-0.5,0.6-0.9c0.1-0.4,0.2-0.9,0.2-1.6c0-0.6,0-1-0.1-1.3C49,98.9,48.9,98.6,48.8,98.4z
				 M48.2,102.4c-0.2,0.3-0.5,0.5-0.8,0.5c-0.3,0-0.6-0.2-0.8-0.5s-0.3-0.9-0.3-1.8c0-0.9,0.1-1.5,0.4-1.9c0.2-0.3,0.4-0.4,0.8-0.4
				c0.3,0,0.6,0.2,0.8,0.5c0.2,0.3,0.3,0.9,0.3,1.8C48.5,101.5,48.4,102.1,48.2,102.4z M39.8,114c-0.1-0.2-0.3-0.4-0.6-0.5
				c-0.2-0.1-0.5-0.2-0.8-0.2c-0.4,0-0.7,0.1-1,0.3c-0.3,0.2-0.5,0.5-0.6,0.9c-0.1,0.4-0.2,0.9-0.2,1.6c0,1.1,0.2,1.8,0.6,2.3
				c0.3,0.4,0.7,0.6,1.3,0.6c0.4,0,0.7-0.1,1-0.3c0.3-0.2,0.5-0.5,0.6-0.9c0.1-0.4,0.2-0.9,0.2-1.6c0-0.6,0-1-0.1-1.3
				C40,114.5,39.9,114.2,39.8,114z M39.2,118c-0.2,0.3-0.5,0.5-0.8,0.5s-0.6-0.2-0.8-0.5c-0.2-0.3-0.3-0.9-0.3-1.8
				c0-0.9,0.1-1.5,0.4-1.9c0.2-0.3,0.4-0.4,0.8-0.4c0.3,0,0.6,0.2,0.8,0.5c0.2,0.3,0.3,0.9,0.3,1.8C39.5,117,39.4,117.7,39.2,118z
				 M44.3,114c-0.1-0.2-0.3-0.4-0.6-0.5c-0.2-0.1-0.5-0.2-0.8-0.2c-0.4,0-0.7,0.1-1,0.3c-0.3,0.2-0.5,0.5-0.6,0.9
				c-0.1,0.4-0.2,0.9-0.2,1.6c0,1.1,0.2,1.8,0.6,2.3c0.3,0.4,0.7,0.6,1.3,0.6c0.4,0,0.7-0.1,1-0.3c0.3-0.2,0.5-0.5,0.6-0.9
				c0.1-0.4,0.2-0.9,0.2-1.6c0-0.6,0-1-0.1-1.3C44.5,114.5,44.4,114.2,44.3,114z M43.7,118c-0.2,0.3-0.5,0.5-0.8,0.5
				c-0.3,0-0.6-0.2-0.8-0.5c-0.2-0.3-0.3-0.9-0.3-1.8c0-0.9,0.1-1.5,0.4-1.9c0.2-0.3,0.4-0.4,0.8-0.4c0.3,0,0.6,0.2,0.8,0.5
				c0.2,0.3,0.3,0.9,0.3,1.8C44,117,43.9,117.7,43.7,118z M42.8,110.9c0.4,0,0.7-0.1,1-0.3c0.3-0.2,0.5-0.5,0.6-0.9
				c0.1-0.4,0.2-0.9,0.2-1.6c0-0.6,0-1-0.1-1.3c-0.1-0.3-0.2-0.6-0.3-0.8c-0.1-0.2-0.3-0.4-0.6-0.5c-0.2-0.1-0.5-0.2-0.8-0.2
				c-0.4,0-0.7,0.1-1,0.3c-0.3,0.2-0.5,0.5-0.6,0.9c-0.1,0.4-0.2,0.9-0.2,1.6c0,1.1,0.2,1.8,0.6,2.3
				C41.9,110.7,42.3,110.9,42.8,110.9z M42.1,106.2c0.2-0.3,0.4-0.4,0.8-0.4c0.3,0,0.6,0.2,0.8,0.5c0.2,0.3,0.3,0.9,0.3,1.8
				c0,0.9-0.1,1.5-0.3,1.8c-0.2,0.3-0.5,0.5-0.8,0.5c-0.3,0-0.6-0.2-0.8-0.5c-0.2-0.3-0.3-0.9-0.3-1.8S41.8,106.5,42.1,106.2z
				 M43,99v4.4h0.7v-5.6h-0.4c-0.1,0.2-0.3,0.5-0.6,0.7c-0.3,0.3-0.6,0.5-1,0.7v0.7c0.2-0.1,0.5-0.2,0.7-0.4
				C42.6,99.3,42.8,99.1,43,99z"/>
		</g>
	</g>
</g>
</svg>
